<svg width="53" height="53" viewBox="0 0 53 53" fill="none" xmlns="http://www.w3.org/2000/svg">
<path d="M28.7945 7.91023C27.4695 7.21902 25.652 7.20798 24.3182 7.89698C18.6251 10.8385 13.4642 14.2084 8.94819 17.9405C8.3431 18.4396 7.94561 19.1352 7.95223 19.9324C7.95886 20.7274 8.3674 21.4142 8.96806 21.9066C13.4488 25.5725 18.6141 28.9446 24.2056 31.8618C25.5306 32.553 27.348 32.5641 28.6819 31.8751C34.3749 28.9336 39.5358 25.5636 44.0519 21.8316C44.6569 21.3325 45.0544 20.6369 45.0478 19.8396C45.0412 19.0446 44.6326 18.3579 44.032 17.8654C39.5513 14.1996 34.386 10.8274 28.7945 7.91023Z" fill="black"/>
<path d="M46.2821 30.3225C46.4728 30.2104 46.6391 30.0612 46.7712 29.8838C46.9033 29.7064 46.9985 29.5043 47.0512 29.2895C47.1039 29.0746 47.1131 28.8514 47.0781 28.633C47.0431 28.4146 46.9648 28.2054 46.8477 28.0178C46.7305 27.8301 46.577 27.6678 46.3961 27.5405C46.2153 27.4132 46.0107 27.3233 45.7946 27.2763C45.5784 27.2293 45.3551 27.2261 45.1377 27.2669C44.9202 27.3076 44.7132 27.3915 44.5287 27.5135L31.0402 35.9339C29.8389 36.6847 28.2069 37.1021 26.4999 37.1021C24.7928 37.1021 23.1587 36.6825 21.9573 35.9339L8.61901 27.6085C8.24622 27.376 7.79634 27.3011 7.36832 27.4002C6.9403 27.4994 6.56922 27.7646 6.3367 28.1374C6.10418 28.5102 6.02928 28.96 6.12847 29.3881C6.22765 29.8161 6.49281 30.1872 6.8656 30.4197L20.2039 38.7451C22.0346 39.8868 24.3048 40.4146 26.4977 40.4146C28.695 40.4146 30.9651 39.8846 32.7958 38.7429L46.2821 30.3225Z" fill="black"/>
<path d="M46.2824 38.615C46.473 38.5029 46.6393 38.3537 46.7714 38.1763C46.9035 37.9989 46.9987 37.7968 47.0514 37.5819C47.1041 37.3671 47.1133 37.1439 47.0783 36.9255C47.0434 36.7071 46.965 36.4979 46.8479 36.3102C46.7308 36.1226 46.5772 35.9603 46.3964 35.833C46.2155 35.7056 46.011 35.6158 45.7948 35.5688C45.5787 35.5218 45.3553 35.5186 45.1379 35.5593C44.9205 35.6001 44.7134 35.6839 44.5289 35.806L32.8469 43.1001C31.142 44.1645 28.8586 44.7409 26.5001 44.7409C24.1416 44.7409 21.8582 44.1667 20.1511 43.1001L8.61923 35.901C8.43464 35.7857 8.22916 35.7079 8.01451 35.672C7.79986 35.6362 7.58025 35.6429 7.36821 35.6919C7.15618 35.741 6.95587 35.8312 6.77873 35.9577C6.60159 36.0841 6.45109 36.2442 6.33581 36.4287C6.22054 36.6133 6.14275 36.8188 6.10688 37.0335C6.07102 37.2481 6.07779 37.4677 6.1268 37.6798C6.17581 37.8918 6.2661 38.0921 6.39252 38.2692C6.51895 38.4464 6.67902 38.5969 6.86361 38.7122L18.3955 45.9113C20.7319 47.3688 23.6536 48.0534 26.5001 48.0534C29.3466 48.0534 32.2661 47.3688 34.6047 45.9091L46.2824 38.615Z" fill="black"/>
</svg>
