<svg width="53" height="53" viewBox="0 0 53 53" fill="none" xmlns="http://www.w3.org/2000/svg">
<path d="M30.9167 33.1251C31.5424 33.1251 32.0857 32.8954 32.5465 32.4361C33.0073 31.9767 33.237 31.4335 33.2355 30.8063C33.234 30.1792 33.0044 29.6367 32.5465 29.1788C32.0886 28.7209 31.5454 28.4905 30.9167 28.4876C30.2881 28.4846 29.7456 28.715 29.2892 29.1788C28.8328 29.6425 28.6024 30.1851 28.598 30.8063C28.5936 31.4276 28.824 31.9709 29.2892 32.4361C29.7544 32.9013 30.2969 33.131 30.9167 33.1251ZM29.2605 26.0584H32.573C32.573 24.9911 32.6834 24.2093 32.9042 23.7132C33.1251 23.217 33.6404 22.5634 34.4501 21.7522C35.5543 20.648 36.2904 19.7558 36.6584 19.0757C37.0265 18.3955 37.2105 17.5946 37.2105 16.673C37.2105 15.0167 36.6304 13.6645 35.4703 12.6163C34.3102 11.5681 32.7924 11.0432 30.9167 11.0417C29.4077 11.0417 28.0923 11.465 26.9705 12.3115C25.8486 13.1581 25.0661 14.2806 24.623 15.6792L27.6042 16.8938C27.9355 15.9737 28.3867 15.284 28.958 14.8246C29.5292 14.3653 30.1821 14.1349 30.9167 14.1334C31.8001 14.1334 32.5178 14.3822 33.0699 14.8798C33.622 15.3774 33.898 16.0488 33.898 16.8938C33.898 17.4091 33.7508 17.8972 33.4563 18.358C33.1619 18.8188 32.6466 19.3981 31.9105 20.0959C30.6959 21.1633 29.951 22.001 29.6757 22.609C29.4004 23.217 29.262 24.3668 29.2605 26.0584ZM17.6667 39.7501C16.4522 39.7501 15.4128 39.318 14.5486 38.4538C13.6844 37.5896 13.2516 36.5495 13.2501 35.3334V8.83342C13.2501 7.61883 13.6829 6.57944 14.5486 5.71525C15.4142 4.85105 16.4536 4.41822 17.6667 4.41675H44.1668C45.3813 4.41675 46.4215 4.84958 47.2871 5.71525C48.1528 6.58091 48.5849 7.6203 48.5834 8.83342V35.3334C48.5834 36.548 48.1513 37.5881 47.2871 38.4538C46.4229 39.3195 45.3828 39.7516 44.1668 39.7501H17.6667ZM8.83342 48.5834C7.61883 48.5834 6.57944 48.1513 5.71525 47.2871C4.85105 46.4229 4.41822 45.3828 4.41675 44.1668V13.2501H8.83342V44.1668H39.7501V48.5834H8.83342Z" fill="black"/>
</svg>
