<svg width="53" height="53" viewBox="0 0 53 53" fill="none" xmlns="http://www.w3.org/2000/svg">
<path d="M8.83325 41.9584V22.0834C8.83325 21.3841 8.99004 20.7216 9.30363 20.0959C9.61721 19.4702 10.0493 18.9549 10.5999 18.5501L23.8499 8.61258C24.6228 8.02369 25.5062 7.72925 26.4999 7.72925C27.4937 7.72925 28.377 8.02369 29.1499 8.61258L42.3999 18.5501C42.952 18.9549 43.3848 19.4702 43.6984 20.0959C44.012 20.7216 44.1681 21.3841 44.1666 22.0834V41.9584C44.1666 43.173 43.7338 44.2131 42.8681 45.0788C42.0024 45.9445 40.963 46.3766 39.7499 46.3751H33.1249C32.4992 46.3751 31.9751 46.1631 31.5526 45.7391C31.1301 45.3151 30.9181 44.791 30.9166 44.1668V33.1251C30.9166 32.4994 30.7046 31.9753 30.2806 31.5527C29.8566 31.1302 29.3325 30.9182 28.7083 30.9167H24.2916C23.6659 30.9167 23.1418 31.1287 22.7193 31.5527C22.2967 31.9767 22.0847 32.5009 22.0833 33.1251V44.1668C22.0833 44.7924 21.8713 45.3173 21.4473 45.7413C21.0233 46.1653 20.4991 46.3766 19.8749 46.3751H13.2499C12.0353 46.3751 10.9959 45.943 10.1318 45.0788C9.26756 44.2146 8.83472 43.1745 8.83325 41.9584Z" fill="black"/>
</svg>
