<svg width="50" height="50" viewBox="0 0 50 50" fill="none" xmlns="http://www.w3.org/2000/svg">
<path d="M25 45.8334C22.118 45.8334 19.4097 45.2862 16.875 44.1917C14.3402 43.0973 12.1354 41.6133 10.2604 39.7397C8.38538 37.8661 6.90135 35.6612 5.8083 33.1251C4.71524 30.589 4.16802 27.8806 4.16663 25.0001C4.16524 22.1195 4.71246 19.4112 5.8083 16.8751C6.90413 14.339 8.38816 12.1341 10.2604 10.2605C12.1326 8.38689 14.3375 6.90286 16.875 5.80841C19.4125 4.71397 22.1208 4.16675 25 4.16675C27.8791 4.16675 30.5875 4.71397 33.125 5.80841C35.6625 6.90286 37.8673 8.38689 39.7395 10.2605C41.6118 12.1341 43.0965 14.339 44.1937 16.8751C45.2909 19.4112 45.8375 22.1195 45.8333 25.0001C45.8291 27.8806 45.2819 30.589 44.1916 33.1251C43.1013 35.6612 41.6173 37.8661 39.7395 39.7397C37.8618 41.6133 35.6569 43.098 33.125 44.1938C30.593 45.2897 27.8847 45.8362 25 45.8334ZM25 41.6667C29.6527 41.6667 33.5937 40.0522 36.8229 36.823C40.052 33.5938 41.6666 29.6529 41.6666 25.0001C41.6666 20.3473 40.052 16.4063 36.8229 13.1772C33.5937 9.948 29.6527 8.33341 25 8.33341C20.3472 8.33341 16.4062 9.948 13.177 13.1772C9.94788 16.4063 8.33329 20.3473 8.33329 25.0001C8.33329 29.6529 9.94788 33.5938 13.177 36.823C16.4062 40.0522 20.3472 41.6667 25 41.6667ZM25 37.5001C21.5277 37.5001 18.5764 36.2848 16.1458 33.8542C13.7152 31.4237 12.5 28.4723 12.5 25.0001C12.5 21.5279 13.7152 18.5765 16.1458 16.1459C18.5764 13.7154 21.5277 12.5001 25 12.5001C28.4722 12.5001 31.4236 13.7154 33.8541 16.1459C36.2847 18.5765 37.5 21.5279 37.5 25.0001C37.5 28.4723 36.2847 31.4237 33.8541 33.8542C31.4236 36.2848 28.4722 37.5001 25 37.5001ZM25 33.3334C27.2916 33.3334 29.2534 32.5174 30.8854 30.8855C32.5173 29.2536 33.3333 27.2917 33.3333 25.0001C33.3333 22.7084 32.5173 20.7466 30.8854 19.1147C29.2534 17.4827 27.2916 16.6667 25 16.6667C22.7083 16.6667 20.7465 17.4827 19.1145 19.1147C17.4826 20.7466 16.6666 22.7084 16.6666 25.0001C16.6666 27.2917 17.4826 29.2536 19.1145 30.8855C20.7465 32.5174 22.7083 33.3334 25 33.3334ZM25 29.1667C23.8541 29.1667 22.8736 28.7591 22.0583 27.9438C21.243 27.1286 20.8347 26.1473 20.8333 25.0001C20.8319 23.8529 21.2402 22.8723 22.0583 22.0584C22.8764 21.2445 23.8569 20.8362 25 20.8334C26.143 20.8306 27.1243 21.239 27.9437 22.0584C28.7632 22.8779 29.1708 23.8584 29.1666 25.0001C29.1625 26.1417 28.7548 27.123 27.9437 27.9438C27.1326 28.7647 26.1514 29.1723 25 29.1667Z" fill="black"/>
</svg>
