<svg width="49" height="49" viewBox="0 0 49 49" fill="none" xmlns="http://www.w3.org/2000/svg">
<path d="M43.8346 8.88125L41.0988 7.73792V26.1742L46.06 14.21C46.8971 12.1275 45.9375 9.73875 43.8346 8.88125ZM4.02212 16.4354L14.1488 40.8333C14.447 41.5756 14.9556 42.2146 15.6122 42.6717C16.2687 43.1287 17.0445 43.3839 17.8442 43.4058C18.375 43.4058 18.9263 43.3038 19.4571 43.0792L34.5042 36.8521C36.0355 36.2192 36.9746 34.7083 37.0155 33.1975C37.0359 32.6667 36.9338 32.0746 36.75 31.5438L26.5417 7.14583C26.2541 6.39798 25.7475 5.75431 25.0882 5.29899C24.4289 4.84367 23.6475 4.59787 22.8463 4.59375C22.3155 4.59375 21.7846 4.71625 21.2742 4.9L6.24754 11.1271C5.24868 11.5361 4.45314 12.3251 4.03583 13.3205C3.61851 14.3159 3.61358 15.4364 4.02212 16.4354ZM36.995 8.67708C36.995 7.59412 36.5648 6.5555 35.7991 5.78973C35.0333 5.02396 33.9947 4.59375 32.9117 4.59375H29.9513L36.995 21.6213" fill="black"/>
</svg>
