<svg width="53" height="53" viewBox="0 0 53 53" fill="none" xmlns="http://www.w3.org/2000/svg">
<path fill-rule="evenodd" clip-rule="evenodd" d="M19.875 11.0417C19.875 9.87029 20.3403 8.7469 21.1686 7.91861C21.9969 7.09033 23.1203 6.625 24.2917 6.625H28.7083C29.8797 6.625 31.0031 7.09033 31.8314 7.91861C32.6597 8.7469 33.125 9.87029 33.125 11.0417V19.875H41.9583C43.1297 19.875 44.2531 20.3403 45.0814 21.1686C45.9097 21.9969 46.375 23.1203 46.375 24.2917V28.7083C46.375 29.8797 45.9097 31.0031 45.0814 31.8314C44.2531 32.6597 43.1297 33.125 41.9583 33.125H33.125V41.9583C33.125 43.1297 32.6597 44.2531 31.8314 45.0814C31.0031 45.9097 29.8797 46.375 28.7083 46.375H24.2917C23.1203 46.375 21.9969 45.9097 21.1686 45.0814C20.3403 44.2531 19.875 43.1297 19.875 41.9583V33.125H11.0417C9.87029 33.125 8.7469 32.6597 7.91861 31.8314C7.09033 31.0031 6.625 29.8797 6.625 28.7083V24.2917C6.625 23.1203 7.09033 21.9969 7.91861 21.1686C8.7469 20.3403 9.87029 19.875 11.0417 19.875H19.875V11.0417Z" fill="black"/>
</svg>
