<svg width="52" height="52" viewBox="0 0 52 52" fill="none" xmlns="http://www.w3.org/2000/svg">
<path d="M25.9999 4.33325C28.1425 4.33325 30.2371 4.96862 32.0186 6.159C33.8001 7.34938 35.1887 9.04131 36.0086 11.0208C36.8286 13.0004 37.0431 15.1786 36.6251 17.2801C36.2071 19.3815 35.1753 21.3118 33.6602 22.8269C32.1452 24.342 30.2149 25.3738 28.1134 25.7918C26.0119 26.2098 23.8337 25.9952 21.8542 25.1753C19.8747 24.3553 18.1827 22.9668 16.9923 21.1853C15.8019 19.4037 15.1666 17.3092 15.1666 15.1666L15.1774 14.6964C15.2986 11.9074 16.4917 9.27277 18.5081 7.34201C20.5244 5.41126 23.2082 4.33341 25.9999 4.33325ZM30.3333 30.3333C33.2064 30.3333 35.9619 31.4746 37.9936 33.5063C40.0252 35.5379 41.1666 38.2934 41.1666 41.1666V43.3332C41.1666 44.4825 40.71 45.5847 39.8974 46.3974C39.0847 47.21 37.9825 47.6666 36.8333 47.6666H15.1666C14.0173 47.6666 12.9151 47.21 12.1025 46.3974C11.2898 45.5847 10.8333 44.4825 10.8333 43.3332V41.1666C10.8333 38.2934 11.9746 35.5379 14.0063 33.5063C16.0379 31.4746 18.7934 30.3333 21.6666 30.3333H30.3333Z" fill="black"/>
</svg>
